<svg xmlns="http://www.w3.org/2000/svg" xmlns:xlink="http://www.w3.org/1999/xlink" width="525" zoomAndPan="magnify" viewBox="0 0 393.75 112.499997" height="150" preserveAspectRatio="xMidYMid meet" version="1.0"><defs><g/></defs><g fill="#ff5412" fill-opacity="1"><g transform="translate(19.943304, 75.957857)"><g><path d="M 3.625 -36.265625 L 19.421875 -36.265625 C 24.046875 -36.265625 27.632812 -35.164062 30.1875 -32.96875 C 32.75 -30.769531 34.03125 -27.65625 34.03125 -23.625 C 34.03125 -19.375 32.75 -16.070312 30.1875 -13.71875 C 27.632812 -11.375 24.046875 -10.203125 19.421875 -10.203125 L 12.84375 -10.203125 L 12.84375 0 L 3.625 0 Z M 12.84375 -29 L 12.84375 -17.453125 L 18.953125 -17.453125 C 20.992188 -17.453125 22.566406 -17.953125 23.671875 -18.953125 C 24.773438 -19.953125 25.328125 -21.40625 25.328125 -23.3125 C 25.328125 -25.175781 24.773438 -26.585938 23.671875 -27.546875 C 22.566406 -28.515625 20.992188 -29 18.953125 -29 Z M 12.84375 -29 "/></g></g></g><g fill="#ff5412" fill-opacity="1"><g transform="translate(52.569996, 75.957857)"><g><path d="M 12.84375 -7.71875 L 28.234375 -7.71875 L 28.234375 0 L 3.625 0 L 3.625 -36.265625 L 12.84375 -36.265625 Z M 12.84375 -7.71875 "/></g></g></g><g fill="#ff5412" fill-opacity="1"><g transform="translate(78.981981, 75.957857)"><g><path d="M 27.71875 -6.6875 L 11.859375 -6.6875 L 9.21875 0 L -0.265625 0 L 15.390625 -36.265625 L 24.859375 -36.265625 L 40.140625 0 L 30.296875 0 Z M 25.015625 -13.671875 L 19.84375 -27.09375 L 14.5625 -13.671875 Z M 25.015625 -13.671875 "/></g></g></g><g fill="#ff5412" fill-opacity="1"><g transform="translate(116.269713, 75.957857)"><g><path d="M 22.328125 -11.703125 L 22.328125 0 L 13.15625 0 L 13.15625 -11.453125 L -0.265625 -36.265625 L 8.953125 -36.265625 L 17.71875 -20.453125 L 26.265625 -36.265625 L 35.484375 -36.265625 Z M 22.328125 -11.703125 "/></g></g></g><g fill="#ff5412" fill-opacity="1"><g transform="translate(148.896404, 75.957857)"><g><path d="M 27.71875 -18.4375 L 35.6875 -18.4375 L 35.6875 -4.296875 C 33.71875 -2.921875 31.34375 -1.789062 28.5625 -0.90625 C 25.78125 -0.0195312 23.128906 0.421875 20.609375 0.421875 C 15.085938 0.421875 10.476562 -1.347656 6.78125 -4.890625 C 3.09375 -8.429688 1.25 -12.84375 1.25 -18.125 C 1.25 -23.375 3.144531 -27.757812 6.9375 -31.28125 C 10.738281 -34.800781 15.503906 -36.5625 21.234375 -36.5625 C 23.929688 -36.5625 26.609375 -36.078125 29.265625 -35.109375 C 31.921875 -34.148438 34.179688 -32.84375 36.046875 -31.1875 L 30.875 -24.921875 C 29.5625 -26.128906 28.039062 -27.082031 26.3125 -27.78125 C 24.582031 -28.488281 22.875 -28.84375 21.1875 -28.84375 C 18.21875 -28.84375 15.722656 -27.816406 13.703125 -25.765625 C 11.679688 -23.710938 10.671875 -21.164062 10.671875 -18.125 C 10.671875 -15.050781 11.6875 -12.476562 13.71875 -10.40625 C 15.757812 -8.332031 18.28125 -7.296875 21.28125 -7.296875 C 23.21875 -7.296875 25.363281 -7.882812 27.71875 -9.0625 Z M 27.71875 -18.4375 "/></g></g></g><g fill="#ff5412" fill-opacity="1"><g transform="translate(184.785828, 75.957857)"><g><path d="M 25.484375 0 L 20.09375 -10.203125 L 12.84375 -10.203125 L 12.84375 0 L 3.625 0 L 3.625 -36.265625 L 19.84375 -36.265625 C 24.632812 -36.265625 28.34375 -35.164062 30.96875 -32.96875 C 33.59375 -30.769531 34.90625 -27.65625 34.90625 -23.625 C 34.90625 -18.03125 32.710938 -14.144531 28.328125 -11.96875 L 35.953125 0 Z M 12.84375 -17.453125 L 19.84375 -17.453125 C 21.84375 -17.453125 23.394531 -17.953125 24.5 -18.953125 C 25.601562 -19.953125 26.15625 -21.40625 26.15625 -23.3125 C 26.15625 -25.175781 25.601562 -26.585938 24.5 -27.546875 C 23.394531 -28.515625 21.84375 -29 19.84375 -29 L 12.84375 -29 Z M 12.84375 -17.453125 "/></g></g></g><g fill="#ff5412" fill-opacity="1"><g transform="translate(219.691256, 75.957857)"><g><path d="M 20.828125 -36.5625 C 26.453125 -36.5625 31.128906 -34.804688 34.859375 -31.296875 C 38.585938 -27.796875 40.453125 -23.425781 40.453125 -18.1875 C 40.453125 -12.894531 38.578125 -8.46875 34.828125 -4.90625 C 31.085938 -1.351562 26.421875 0.421875 20.828125 0.421875 C 15.234375 0.421875 10.570312 -1.347656 6.84375 -4.890625 C 3.113281 -8.429688 1.25 -12.863281 1.25 -18.1875 C 1.25 -23.46875 3.113281 -27.847656 6.84375 -31.328125 C 10.570312 -34.816406 15.234375 -36.5625 20.828125 -36.5625 Z M 20.921875 -28.84375 C 18.085938 -28.84375 15.671875 -27.816406 13.671875 -25.765625 C 11.671875 -23.710938 10.671875 -21.164062 10.671875 -18.125 C 10.671875 -15.09375 11.679688 -12.53125 13.703125 -10.4375 C 15.722656 -8.34375 18.128906 -7.296875 20.921875 -7.296875 C 23.722656 -7.296875 26.097656 -8.34375 28.046875 -10.4375 C 29.992188 -12.53125 30.96875 -15.09375 30.96875 -18.125 C 30.96875 -21.164062 29.992188 -23.710938 28.046875 -25.765625 C 26.097656 -27.816406 23.722656 -28.84375 20.921875 -28.84375 Z M 20.921875 -28.84375 "/></g></g></g><g fill="#ff5412" fill-opacity="1"><g transform="translate(258.791606, 75.957857)"><g><path d="M 36.265625 -36.265625 L 36.265625 -15.234375 C 36.265625 -10.429688 34.773438 -6.617188 31.796875 -3.796875 C 28.828125 -0.984375 24.804688 0.421875 19.734375 0.421875 C 14.617188 0.421875 10.550781 -0.984375 7.53125 -3.796875 C 4.507812 -6.617188 3 -10.429688 3 -15.234375 L 3 -36.265625 L 12.21875 -36.265625 L 12.21875 -15.234375 C 12.21875 -12.816406 12.914062 -10.890625 14.3125 -9.453125 C 15.71875 -8.015625 17.539062 -7.296875 19.78125 -7.296875 C 21.988281 -7.296875 23.757812 -8.003906 25.09375 -9.421875 C 26.425781 -10.835938 27.09375 -12.773438 27.09375 -15.234375 L 27.09375 -36.265625 Z M 36.265625 -36.265625 "/></g></g></g><g fill="#ff5412" fill-opacity="1"><g transform="translate(295.457881, 75.957857)"><g><path d="M 37.09375 0 L 28.953125 0 L 12.28125 -22.328125 L 12.28125 0 L 3.625 0 L 3.625 -36.265625 L 11.765625 -36.265625 L 28.484375 -13.875 L 28.484375 -36.265625 L 37.09375 -36.265625 Z M 37.09375 0 "/></g></g></g><g fill="#ff5412" fill-opacity="1"><g transform="translate(333.574247, 75.957857)"><g><path d="M 3.625 -36.265625 L 19.21875 -36.265625 C 24.914062 -36.265625 29.550781 -34.585938 33.125 -31.234375 C 36.695312 -27.878906 38.484375 -23.507812 38.484375 -18.125 C 38.484375 -12.769531 36.671875 -8.410156 33.046875 -5.046875 C 29.421875 -1.679688 24.691406 0 18.859375 0 L 3.625 0 Z M 12.84375 -28.90625 L 12.84375 -7.359375 L 19.421875 -7.359375 C 22.253906 -7.359375 24.578125 -8.347656 26.390625 -10.328125 C 28.203125 -12.316406 29.109375 -14.898438 29.109375 -18.078125 C 29.109375 -21.253906 28.15625 -23.851562 26.25 -25.875 C 24.351562 -27.894531 21.941406 -28.90625 19.015625 -28.90625 Z M 12.84375 -28.90625 "/></g></g></g></svg>